<svg height="512pt" viewBox="0 0 512.00163 512" width="512pt" xmlns="http://www.w3.org/2000/svg"><path d="m502 160c-5.519531 0-10 4.480469-10 10s4.480469 10 10 10 10-4.480469 10-10-4.480469-10-10-10zm0 0"/><path d="m386 10c0-5.519531-4.480469-10-10-10s-10 4.480469-10 10 4.480469 10 10 10 10-4.480469 10-10zm0 0"/><path d="m236 472c5.519531 0 10-4.480469 10-10s-4.480469-10-10-10-10 4.480469-10 10 4.480469 10 10 10zm0 0"/><path d="m126 10c0 5.519531 4.480469 10 10 10s10-4.480469 10-10-4.480469-10-10-10-10 4.480469-10 10zm0 0"/><path d="m10 180c5.523438 0 10-4.480469 10-10s-4.476562-10-10-10c-5.519531 0-10 4.480469-10 10s4.480469 10 10 10zm0 0"/><path d="m366 502c0-5.523438-4.476562-10-10-10h-30c0-62.679688 0-198.792969 0-256 0-5.523438-4.476562-10-10-10h-50v-36c0-5.523438-4.476562-10-10-10s-10 4.476562-10 10v36h-50c-5.523438 0-10 4.476562-10 10v256h-30c-5.523438 0-10 4.476562-10 10s4.476562 10 10 10h200c5.523438 0 10-4.476562 10-10zm-60-50h-30c-5.523438 0-10 4.476562-10 10s4.476562 10 10 10h30v20h-100v-60h100zm0-40h-100v-34.316406l14.453125 9.636718c3.359375 2.238282 7.734375 2.238282 11.09375 0l24.453125-16.304687 24.453125 16.304687c1.679687 1.117188 3.613281 1.679688 5.546875 1.679688s3.867188-.5625 5.546875-1.679688l14.453125-9.636718zm0-58.351562-20 13.332031-24.453125-16.300781c-3.355469-2.238282-7.734375-2.238282-11.09375 0l-24.453125 16.300781-20-13.332031v-55.964844l14.453125 9.636718c3.359375 2.238282 7.734375 2.238282 11.09375 0l24.453125-16.300781 24.453125 16.300781c1.679687 1.121094 3.613281 1.679688 5.546875 1.679688s3.867188-.558594 5.546875-1.679688l14.453125-9.636718zm0-80-20 13.332031-24.453125-16.300781c-3.355469-2.238282-7.734375-2.238282-11.09375 0l-24.453125 16.300781-20-13.332031v-27.648438h100zm0 0"/><path d="m256 160c5.523438 0 10-4.476562 10-10v-140c0-5.523438-4.476562-10-10-10s-10 4.476562-10 10v140c0 5.523438 4.476562 10 10 10zm0 0"/><path d="m511.921875 52.480469c.683594-5.480469-3.203125-10.480469-8.683594-11.164063-86.601562-10.796875-170.890625 44.628906-191.882812 126.191406-1.375 5.347657 1.84375 10.800782 7.191406 12.175782 5.363281 1.378906 10.804687-1.851563 12.179687-7.191406 18.53125-72.003907 93.214844-120.90625 170.035157-111.328126 5.476562.679688 10.476562-3.207031 11.160156-8.683593zm0 0"/><path d="m316.902344 93.753906c7.894531-19.507812 19.613281-36.867187 34.832031-51.585937 3.96875-3.839844 4.074219-10.171875.234375-14.140625s-10.171875-4.074219-14.140625-.234375c-17.238281 16.675781-30.515625 36.34375-39.464844 58.457031-2.074219 5.117188.394531 10.949219 5.515625 13.019531 5.121094 2.074219 10.949219-.398437 13.023438-5.515625zm0 0"/><path d="m8.765625 41.316406c-5.480469.683594-9.371094 5.683594-8.6875 11.164063.683594 5.476562 5.683594 9.367187 11.160156 8.683593 76.816407-9.582031 151.503907 39.320313 170.039063 111.328126 1.371094 5.332031 6.808594 8.574218 12.175781 7.191406 5.347656-1.375 8.566406-6.828125 7.191406-12.175782-10.171875-39.519531-35.652343-74.28125-71.746093-97.878906-35.863282-23.445312-78.527344-33.5-120.132813-28.3125zm0 0"/><path d="m213.640625 86.25c-8.949219-22.117188-22.230469-41.78125-39.464844-58.457031-3.96875-3.839844-10.300781-3.734375-14.140625.234375s-3.734375 10.300781.234375 14.140625c15.214844 14.71875 26.9375 32.074219 34.832031 51.582031 2.074219 5.121094 7.90625 7.589844 13.019532 5.519531 5.121094-2.070312 7.59375-7.902343 5.519531-13.019531zm0 0"/><path d="m359.898438 199.210938c8.339843-3.53125 52.632812-46.113282 103.351562-35.378907 5.40625 1.144531 10.710938-2.308593 11.851562-7.710937 1.144532-5.402344-2.308593-10.710938-7.710937-11.855469-57.679687-12.210937-106.023437 30.765625-115.6875 36.703125-4.808594 2.285156-7.007813 7.976562-4.914063 12.929688 2.160157 5.09375 8.035157 7.460937 13.109376 5.3125zm0 0"/><path d="m48.753906 163.832031c50.800782-10.753906 94.917969 31.808594 103.351563 35.378907 5.089843 2.152343 10.953125-.230469 13.105469-5.3125 2.097656-4.953126-.101563-10.644532-4.914063-12.929688-9.132813-5.613281-57.808594-48.957031-115.6875-36.703125-5.402344 1.144531-8.855469 6.453125-7.710937 11.855469 1.144531 5.402344 6.453124 8.859375 11.855468 7.710937zm0 0"/></svg>