<svg xmlns="http://www.w3.org/2000/svg" viewBox="0 0 57 49">
  <defs>
    <style>
      .cls-1 {
        fill: #fff;
      }
    </style>
  </defs>
  <g id="camara-de-video" transform="translate(0 -4)">
    <path id="Path_67" data-name="Path 67" class="cls-1" d="M55.332,6.643a2.69,2.69,0,0,0-2.952.523L41,17.669V8.944A4.95,4.95,0,0,0,36.056,4H4.944A4.95,4.95,0,0,0,0,8.944V32.209A4.8,4.8,0,0,0,4.791,37H19.566L12.8,51.579a1,1,0,0,0,.486,1.328.982.982,0,0,0,.42.093,1,1,0,0,0,.908-.579l6.514-14.044,6.514,14.044a1,1,0,0,0,.907.579.982.982,0,0,0,.42-.093,1,1,0,0,0,.486-1.328L22.7,37H35.827A5.18,5.18,0,0,0,41,31.826v-8L52.32,34.643a2.7,2.7,0,0,0,1.917.808A2.769,2.769,0,0,0,57,32.683V9.183A2.723,2.723,0,0,0,55.332,6.643ZM39,31.826A3.177,3.177,0,0,1,35.827,35H4.791A2.794,2.794,0,0,1,2,32.209V8.944A2.948,2.948,0,0,1,4.944,6H36.056A2.948,2.948,0,0,1,39,8.944Zm16,.857a.743.743,0,0,1-.467.706.711.711,0,0,1-.8-.165L41.221,21.27A.763.763,0,0,1,41,20.717a.752.752,0,0,1,.228-.536L53.748,8.625a.7.7,0,0,1,.495-.208.79.79,0,0,1,.3.063.748.748,0,0,1,.456.7Z"/>
    <path id="Path_68" data-name="Path 68" class="cls-1" d="M18.137,19.723a6.543,6.543,0,1,0-1.26,1.568l1.416,1.416a1,1,0,0,0,1.414-1.414ZM12.5,21a4.5,4.5,0,1,1,4.15-2.764l-1.943-1.943a1,1,0,0,0-1.414,1.414l2.161,2.161A4.463,4.463,0,0,1,12.5,21Z"/>
  </g>
</svg>
