<svg xmlns="http://www.w3.org/2000/svg" viewBox="0 0 46.313 47.787">
  <defs>
    <style>
      .cls-1 {
        fill: #cd880e;
      }
    </style>
  </defs>
  <g id="Group_123" data-name="Group 123" transform="translate(-861.251 -132.213)">
    <g id="Group_71" data-name="Group 71" transform="translate(280 311.551)">
      <g id="if_user_925901_1_" data-name="if_user_925901 (1)" transform="translate(581.252 -179.338)">
        <path id="Path_38" data-name="Path 38" class="cls-1" d="M131.7,25.583a12.791,12.791,0,1,1,12.8-12.787A12.81,12.81,0,0,1,131.7,25.583Zm0-23.679A10.887,10.887,0,1,0,142.579,12.8,10.894,10.894,0,0,0,131.7,1.9Z" transform="translate(-108.559)"/>
        <path id="Path_39" data-name="Path 39" class="cls-1" d="M53.442,277.808a.956.956,0,0,1-.952-.952,21.243,21.243,0,1,0-42.486,0,.952.952,0,0,1-1.9,0,23.156,23.156,0,0,1,46.313,0A.985.985,0,0,1,53.442,277.808Z" transform="translate(-8.1 -230.021)"/>
      </g>
      <g id="spiral" transform="translate(591.44 -170.469)">
        <g id="Group_29" data-name="Group 29" transform="translate(0 0)">
          <path id="Path_40" data-name="Path 40" class="cls-1" d="M6.378,1.128a3.85,3.85,0,0,0-5.446,0,3.182,3.182,0,0,0,0,4.5,2.647,2.647,0,0,0,3.744,0,2.22,2.22,0,0,0,0-3.14,1.879,1.879,0,0,0-2.656,0,.51.51,0,0,0,.72.721.86.86,0,0,1,1.215,0,1.2,1.2,0,0,1,0,1.7,1.628,1.628,0,0,1-2.3,0,2.163,2.163,0,0,1,0-3.059,2.831,2.831,0,0,1,4,0,3.667,3.667,0,0,1,0,5.185c-1.84,1.84,1.622.479.721.721A4.686,4.686,0,0,0,6.378,1.128Z" transform="translate(11.147 5.667) rotate(135)"/>
        </g>
      </g>
      <g id="spiral-2" data-name="spiral" transform="translate(605.039 -171.459)">
        <g id="Group_29-2" data-name="Group 29" transform="translate(0 0)">
          <path id="Path_40-2" data-name="Path 40" class="cls-1" d="M7.51,8.109a4.534,4.534,0,0,1-6.413,0,3.747,3.747,0,0,1,0-5.3,3.117,3.117,0,0,1,4.409,0,2.615,2.615,0,0,1,0,3.7,2.212,2.212,0,0,1-3.127,0,.6.6,0,0,1,.848-.849,1.012,1.012,0,0,0,1.431,0,1.415,1.415,0,0,0,0-2,1.917,1.917,0,0,0-2.712,0,2.547,2.547,0,0,0,0,3.6,3.334,3.334,0,0,0,4.716,0,4.319,4.319,0,0,0,0-6.106C4.5-1.012,8.572.59,7.51.306A5.519,5.519,0,0,1,7.51,8.109Z" transform="translate(6.673 0) rotate(45)"/>
        </g>
      </g>
    </g>
    <g id="spiral-3" data-name="spiral" transform="translate(877.093 158.11) rotate(-81)">
      <g id="Group_29-3" data-name="Group 29" transform="translate(7.861 -3.654) rotate(69)">
        <path id="Path_40-3" data-name="Path 40" class="cls-1" d="M4.524,4.885c-1.067,1.067-1.3.273-.511-.511A2.6,2.6,0,0,0,4.013.7c-1.3-1.3,1.151-.34.511-.511A3.324,3.324,0,0,1,4.524,4.885Z" transform="translate(4.02 0) rotate(45)"/>
      </g>
    </g>
    <g id="Group_72" data-name="Group 72" transform="translate(881.641 149.599) rotate(-12)">
      <path id="Path_40-4" data-name="Path 40" class="cls-1" d="M1.149.607c-1.254-1.254-1.523-.321-.6.6a3.058,3.058,0,0,1,0,4.325c-1.534,1.534,1.353.4.6.6A3.908,3.908,0,0,0,1.149.607Z" transform="translate(8.82 6.998) rotate(135)"/>
    </g>
  </g>
</svg>
