<svg xmlns="http://www.w3.org/2000/svg" viewBox="0 0 55.887 55.886">
  <defs>
    <style>
      .cls-1 {
        fill: #fff;
      }
    </style>
  </defs>
  <g id="superior" transform="translate(0.001)">
    <path id="Path_69" data-name="Path 69" class="cls-1" d="M55.558,53.266,31.883,21.7a5.307,5.307,0,0,0-2.3-1.791V12.043H41.1A1.637,1.637,0,0,0,42.2,9.2L39.027,6.022l3.226-3.227A1.637,1.637,0,0,0,41.1,0H27.942a1.637,1.637,0,0,0-1.637,1.637V19.909A5.3,5.3,0,0,0,24,21.7L.327,53.266a1.637,1.637,0,0,0,1.31,2.62H54.248a1.637,1.637,0,0,0,1.31-2.62ZM29.58,3.275h7.563L35.553,4.864a1.638,1.638,0,0,0,0,2.316l1.589,1.59H29.58Zm-2.958,20.39a1.5,1.5,0,0,1,2.641,0l7.783,10.378L33.553,37.9l-4.4-4.859a1.637,1.637,0,0,0-2.428,0l-4.4,4.859-3.494-3.861ZM4.911,52.611l11.926-15.9,4.281,4.732a1.637,1.637,0,0,0,2.428,0l4.4-4.859,4.4,4.859a1.637,1.637,0,0,0,2.428,0l4.281-4.731,11.925,15.9Zm0,0" transform="translate(0)"/>
  </g>
</svg>
